<svg width="24" height="16" viewBox="0 0 24 16" fill="none" xmlns="http://www.w3.org/2000/svg">
<path fill-rule="evenodd" clip-rule="evenodd" d="M22.9931 15.5327C22.7387 15.7777 22.4404 15.9335 22.0982 16C18.7851 15.9926 15.4718 15.9684 12.1583 15.9272C11.8851 15.7978 11.683 15.5955 11.5521 15.3202C10.982 13.9695 10.4115 12.6181 9.84077 11.2661C9.69588 10.8157 9.81084 10.4432 10.1857 10.1485C11.2068 9.18987 12.2533 8.26214 13.325 7.36534C13.4931 7.33604 13.6613 7.34053 13.8296 7.37878C16.8556 9.35436 19.8565 11.3671 22.8323 13.417C23.0208 13.5786 23.1471 13.7797 23.2111 14.0204C23.155 14.5275 23.0823 15.0316 22.9931 15.5327Z" fill="black"/>
<path fill-rule="evenodd" clip-rule="evenodd" d="M16.6364 4.22527C17.2195 3.7044 17.8082 3.18991 18.4026 2.68186C18.7248 2.56276 19.0331 2.59341 19.3276 2.7738C20.902 4.7236 22.4389 6.70237 23.9383 8.71C23.9589 8.81356 23.9795 8.91719 24 9.02076C23.9114 9.84866 23.7892 10.6747 23.6336 11.4989C23.3359 12.1631 22.8579 12.3382 22.1997 12.0241C19.7596 10.3769 17.3395 8.70702 14.9393 7.01447C14.6608 6.68273 14.622 6.3244 14.8231 5.93944C15.4256 5.36449 16.0301 4.79314 16.6364 4.22527Z" fill="black"/>
<path fill-rule="evenodd" clip-rule="evenodd" d="M10.3898 15.5012C10.2088 15.6557 10.0144 15.791 9.80646 15.9069C7.39194 15.9546 4.97671 15.9683 2.56083 15.9483C2.06402 15.9579 1.72185 15.7294 1.53425 15.2628C1.07248 12.655 0.577236 10.0509 0.0486007 7.45047C-0.0441987 7.11895 -0.00410149 6.80422 0.16888 6.50638C1.63744 5.31232 3.13495 4.15565 4.66153 3.0363C4.90526 3.00618 5.1357 3.05219 5.35279 3.17437C5.60992 3.42895 5.8087 3.72341 5.94909 4.05777C7.40705 7.60816 8.89718 11.1462 10.4195 14.6718C10.4926 14.9559 10.4827 15.2323 10.3898 15.5012Z" fill="black"/>
<path fill-rule="evenodd" clip-rule="evenodd" d="M6.25572 1.84979C6.90376 1.26324 7.58188 0.70954 8.29008 0.188879C8.37853 0.106223 8.47936 0.0432159 8.59262 0C11.5579 0.163037 14.523 0.336741 17.4881 0.521114C18.0623 0.841363 18.2233 1.29936 17.9712 1.89509C15.4585 4.22899 12.9348 6.55164 10.4001 8.86295C9.91322 9.3133 9.41166 9.3423 8.89537 8.95001C7.9494 6.7465 7.02457 4.53391 6.12084 2.31237C6.11692 2.14167 6.16187 1.98751 6.25572 1.84979Z" fill="black"/>
</svg>
