<svg width="28" height="28" viewBox="0 0 28 28" fill="none" xmlns="http://www.w3.org/2000/svg">
<path fill-rule="evenodd" clip-rule="evenodd" d="M0.651759 0.0141218C2.5861 0.000876569 4.52027 0.0141242 6.45425 0.0538649C7.10364 0.359294 7.30235 0.849458 7.0504 1.52436C5.28805 3.33968 3.47312 5.10163 1.60559 6.81019C0.928053 7.0981 0.411395 6.92588 0.0556124 6.29353C0.00262137 4.41236 0.00262137 2.53119 0.0556124 0.650011C0.216827 0.396273 0.415543 0.18431 0.651759 0.0141218Z" fill="black"/>
<path fill-rule="evenodd" clip-rule="evenodd" d="M10.0311 0.0141214C11.7801 0.000876812 13.5287 0.0141245 15.2772 0.0538645C15.6084 0.173094 15.8336 0.398304 15.9528 0.729497C16.5623 2.10726 17.1716 3.48502 17.781 4.86278C17.9487 5.52879 17.7235 5.99245 17.1054 6.25379C15.379 6.60706 13.6435 6.91175 11.899 7.16788C11.7162 7.16832 11.5441 7.12858 11.3824 7.04865C10.0984 6.02261 8.80019 5.01578 7.48756 4.02817C7.16062 3.60314 7.09438 3.13947 7.28884 2.63717C8.21979 1.77001 9.13388 0.895663 10.0311 0.0141214Z" fill="black"/>
<path fill-rule="evenodd" clip-rule="evenodd" d="M17.9798 0.0141293C21.1641 -0.024229 24.3435 0.0155141 27.5181 0.133359C27.7102 0.265513 27.8559 0.437733 27.9553 0.650019C27.995 1.6565 28.0083 2.66332 27.995 3.67049C27.8867 4.0045 27.6747 4.2562 27.3591 4.42561C25.1125 4.8707 22.8604 5.28138 20.6028 5.65765C20.2612 5.71325 19.9168 5.73974 19.5695 5.73714C19.3197 5.68678 19.121 5.5543 18.9734 5.3397C18.4059 4.03478 17.823 2.7365 17.2247 1.44488C17.0155 0.715729 17.2672 0.238812 17.9798 0.0141293Z" fill="black"/>
<path fill-rule="evenodd" clip-rule="evenodd" d="M5.5799 4.3064C5.97328 4.26339 6.34421 4.32963 6.69271 4.50512C9.61859 6.78182 12.5331 9.07367 15.4362 11.3807C15.589 11.6826 15.6287 12.0006 15.5554 12.3345C15.1316 13.9234 14.7077 15.5132 14.2836 17.1037C14.1023 17.6025 13.7446 17.8543 13.2106 17.8588C11.6485 18.0096 10.0853 18.1155 8.52089 18.1767C8.35206 18.0876 8.20636 17.9683 8.08372 17.8191C6.76421 13.993 5.49243 10.1512 4.26838 6.29356C4.21265 6.02105 4.23915 5.75609 4.34786 5.49869C4.74599 5.08731 5.15667 4.68987 5.5799 4.3064Z" fill="black"/>
<path fill-rule="evenodd" clip-rule="evenodd" d="M26.4053 5.49871C27.0935 5.3307 27.6101 5.54266 27.9553 6.1346C28.0083 10.1354 28.0083 14.1362 27.9553 18.137C27.6771 18.7331 27.2134 18.9583 26.5643 18.8126C22.3987 15.6541 18.2786 12.4349 14.2042 9.15508C13.9279 8.44995 14.1266 7.93329 14.8003 7.60509C18.6843 6.92477 22.5526 6.22264 26.4053 5.49871Z" fill="black"/>
<path fill-rule="evenodd" clip-rule="evenodd" d="M3.43378 18.6934C2.56005 18.7559 1.6857 18.809 0.810731 18.8524C0.443891 18.7373 0.192184 18.4988 0.0556124 18.137C0.00262137 15.3285 0.00262137 12.5199 0.0556124 9.71145C0.108604 9.60549 0.161594 9.49946 0.214585 9.3935C0.861881 8.71978 1.53751 8.07069 2.24148 7.44609C2.96128 7.06082 3.50443 7.23303 3.87095 7.96275C4.89778 11.096 5.89135 14.2357 6.85168 17.3819C6.87018 17.867 6.65821 18.2115 6.21579 18.4152C5.28771 18.5124 4.36038 18.6051 3.43378 18.6934Z" fill="black"/>
<path fill-rule="evenodd" clip-rule="evenodd" d="M16.708 12.9704C16.9743 12.9573 17.2392 12.9706 17.5028 13.0101C19.6716 14.6224 21.8178 16.2651 23.9412 17.9383C24.3873 18.2702 24.533 18.7074 24.3784 19.2498C22.995 21.8797 21.6438 24.5293 20.3246 27.1984C20.1789 27.5561 19.9272 27.8079 19.5695 27.9536C17.4498 28.0066 15.3302 28.0066 13.2106 27.9536C12.9743 27.8133 12.802 27.6145 12.6939 27.3574C12.6414 26.9554 12.6679 26.5579 12.7734 26.1651C13.9232 22.0164 15.036 17.8567 16.1118 13.6858C16.2423 13.3837 16.4411 13.1453 16.708 12.9704Z" fill="black"/>
<path fill-rule="evenodd" clip-rule="evenodd" d="M10.985 27.9138C10.0086 27.9901 9.02826 28.0166 8.04399 27.9933C7.90894 28.006 7.77644 27.9928 7.64655 27.9535C5.1353 25.777 2.63148 23.5912 0.135108 21.3959C-0.152796 20.7184 0.0194245 20.2017 0.651768 19.8459C4.4784 19.4972 8.307 19.166 12.1375 18.8524C12.8777 18.7865 13.3413 19.1044 13.5285 19.8062C12.8513 22.4092 12.1491 25.0058 11.4221 27.5958C11.3083 27.75 11.1626 27.8559 10.985 27.9138Z" fill="black"/>
<path fill-rule="evenodd" clip-rule="evenodd" d="M25.372 19.7267C25.6647 19.7136 25.9561 19.7268 26.2463 19.7664C26.8321 20.1577 27.3753 20.5949 27.8758 21.078C28.0061 23.1397 28.0326 25.2063 27.9553 27.2779C27.8361 27.6091 27.6109 27.8343 27.2797 27.9535C25.6104 28.0065 23.9412 28.0065 22.272 27.9535C21.7002 27.6976 21.475 27.2604 21.5964 26.642C22.7092 24.4694 23.822 22.2967 24.9348 20.1241C25.0723 19.973 25.218 19.8404 25.372 19.7267Z" fill="black"/>
<path fill-rule="evenodd" clip-rule="evenodd" d="M0.651748 23.7805C1.01905 23.7402 1.36348 23.8064 1.68507 23.9792C2.59916 24.7873 3.51325 25.5954 4.42734 26.4035C4.66351 26.9836 4.54428 27.4738 4.06965 27.874C2.93582 28.0024 1.79652 28.0289 0.651748 27.9535C0.456215 27.8376 0.283995 27.6919 0.135088 27.5163C0.00718754 26.4886 -0.0193076 25.4553 0.0556018 24.4164C0.216816 24.1626 0.415532 23.9507 0.651748 23.7805Z" fill="black"/>
</svg>
